<svg xmlns="http://www.w3.org/2000/svg" viewBox="631.96 435.46 655.54 209.63" role="img" aria-label="noor">
  <g fill="#FF9700">
    <path d="M994.78,540.27h0.12c0-35.07,23.78-60.07,58.86-60.07c19.25,0,34.94,7.56,45.21,20.15c3.66-15.01,9.92-31.6,20.54-44.82c-17.7-12.75-40.2-20.07-65.75-20.07c-34.88,0-64.04,13.66-83.11,36.12c-19.07-22.46-48.23-36.12-83.11-36.12c-26.05,0-48.9,7.63-66.76,20.84c10.87,12.84,17.75,28.7,22.07,43.2c10.39-12.06,25.89-19.29,44.69-19.29c35.07,0,58.46,25,58.46,60.07s-23.39,60.07-58.46,60.07s-58.86-25-58.86-60.07v-4.04c0-66.92-39.51-100.78-98.36-100.78c-58.86,0-98.36,34.27-98.36,100.78v103.61h47.96V536.23c0-37.88,20.17-56.03,50.4-56.03c29.09,0,48.85,16.82,50.29,51.85c-0.19,2.71-0.32,5.44-0.32,8.22c0,60.47,44.35,104.81,107.24,104.81S994.78,600.74,994.78,540.27L994.78,540.27z"/>
    <path d="M780.3,589.27v50.58h47.96C791.72,629.16,780.3,589.27,780.3,589.27z"/>
    <path d="M1112.95,639.85h47.96v-49.91C1142.9,632.1,1112.95,639.85,1112.95,639.85z"/>
    <path d="M1200.43,435.46c-52.01,0-87.48,28.62-87.48,88.7v16.12c0,35.07-24.11,60.07-59.19,60.07c-21.45,0-38.64-9.38-48.79-24.67c-5.22,17.99-14.69,34.2-22.23,45.23c18.41,15.26,42.85,24.18,71.02,24.18c22.5,0,42.61-5.7,59.19-15.77v0.03l0.01-0.04c29.74-18.06,48.04-50.22,48.04-89.04c0-1.4-0.02-2.79-0.07-4.16v-12.7c0.26-31.66,16.3-43.2,39.5-43.2c23.37,0,39.51,11.7,39.51,43.95v2h47.56v-1.2C1287.5,464.08,1252.43,435.46,1200.43,435.46z"/>
  </g>
</svg>
