<svg width="577" height="182" viewBox="0 0 577 182" fill="none" xmlns="http://www.w3.org/2000/svg">
<g clip-path="url(#clip0_2999_8905)">
<path d="M37.6304 6.27539H0V163.172H37.6304V6.27539Z" fill="white"/>
<path d="M349.425 6.27539V67.5628H290.291V6.27539H250.869V163.172H290.291V104.335H349.425V163.172H388.847V6.27539H349.425Z" fill="white"/>
<path d="M163.902 164.792L173.026 182H217.33L197.938 146.55C215.003 131.223 225.782 108.715 225.782 83.6223C225.782 37.4392 189.279 0 144.249 0C99.2209 0 62.7168 37.4392 62.7168 83.6223C62.7168 129.804 99.2209 167.244 144.249 167.244C151.027 167.244 157.607 166.389 163.902 164.792ZM101.086 83.6223C101.086 59.1718 120.411 39.3517 144.249 39.3517C168.089 39.3517 187.414 59.1718 187.414 83.6223C187.414 108.072 168.089 127.892 144.249 127.892C120.411 127.892 101.086 108.072 101.086 83.6223Z" fill="white"/>
<path d="M495.466 167.243C502.242 167.243 508.824 166.389 515.119 164.792L524.243 182H568.546L549.154 146.551C566.22 131.224 576.999 108.715 576.999 83.6217C576.999 37.4384 540.496 0 495.466 0C450.437 0 413.934 37.4384 413.934 83.6217C413.934 129.805 450.437 167.243 495.466 167.243ZM495.466 39.3509C519.305 39.3509 538.631 59.1721 538.631 83.6217C538.631 108.071 519.305 127.892 495.466 127.892C471.627 127.892 452.301 108.071 452.301 83.6217C452.301 59.1721 471.627 39.3509 495.466 39.3509Z" fill="white"/>
</g>
<defs>
<clipPath id="clip0_2999_8905">
<rect width="577" height="182" fill="white"/>
</clipPath>
</defs>
</svg>
