<?xml version="1.0" encoding="UTF-8" standalone="no"?>
<!DOCTYPE svg PUBLIC "-//W3C//DTD SVG 1.1//EN" "http://www.w3.org/Graphics/SVG/1.1/DTD/svg11.dtd">
<svg width="100%" height="100%" viewBox="0 0 428 134" version="1.1" xmlns="http://www.w3.org/2000/svg" xmlns:xlink="http://www.w3.org/1999/xlink" xml:space="preserve" xmlns:serif="http://www.serif.com/" style="fill-rule:evenodd;clip-rule:evenodd;stroke-linejoin:round;stroke-miterlimit:2;">
    <g id="Artboard1" transform="matrix(0.903635,0,0,0.861258,-144.848,-201.195)">
        <rect x="160.295" y="233.606" width="472.754" height="155.202" style="fill:none;"/>
        <g transform="matrix(1.10664,0,0,1.16109,-29.5557,-44.0257)">
            <path d="M201.3,349.91C197.72,350.09 195.33,351.51 193.02,353.01C191.33,351.37 189.73,349.64 188.23,347.83C190.54,347.03 192.21,345.83 193.67,344.78C204.71,336.21 208.51,348.86 220.2,348.75C228.69,348.85 233.02,342.15 239.01,341.82C245.01,342.15 249.33,348.85 257.82,348.75C269.51,348.86 273.31,336.21 284.35,344.78C285.68,345.74 287.19,346.81 289.19,347.61C287.72,349.39 286.16,351.09 284.52,352.7C282.35,351.31 280.04,350.07 276.71,349.9C268.07,350.26 267.91,356.89 257.81,356.69C247.75,356.89 247.56,350.3 239,349.9C230.44,350.3 230.25,356.89 220.19,356.69C210.11,356.9 209.95,350.27 201.3,349.91ZM201.3,336.87C209.94,337.23 210.1,343.86 220.2,343.66C230.26,343.86 230.45,337.27 239.01,336.87C247.57,337.27 247.76,343.86 257.82,343.66C267.91,343.86 268.07,337.22 276.72,336.87C283.71,337.21 286.19,342.3 292.32,343.5C293.9,341.24 295.35,338.88 296.64,336.43C296.37,336.44 296.1,336.45 295.82,336.45C290.08,336.45 287.01,334.25 284.55,332.48C282.36,330.9 280.62,329.66 276.92,329.66C273.21,329.66 271.48,330.91 269.29,332.48C266.83,334.25 263.77,336.45 258.02,336.45C252.28,336.45 249.21,334.25 246.75,332.48C244.56,330.9 242.82,329.66 239.12,329.66C235.41,329.66 233.68,330.91 231.49,332.48C229.03,334.25 225.97,336.45 220.22,336.45C214.48,336.45 211.42,334.25 208.96,332.48C206.77,330.9 205.03,329.66 201.33,329.66C197.62,329.66 195.89,330.91 193.7,332.48C191.24,334.25 188.18,336.45 182.43,336.45C181.77,336.45 181.16,336.42 180.57,336.36C181.89,338.88 183.38,341.3 185,343.62C191.65,342.69 194.05,337.22 201.3,336.87ZM257.83,361.8C249.34,361.9 245.01,355.2 239.02,354.87C233.02,355.2 228.7,361.9 220.21,361.8C209.54,361.9 205.44,351.37 196.4,356.06C207.8,365.69 222.53,371.5 238.63,371.5C254.86,371.5 269.7,365.59 281.15,355.81C272.44,351.76 268.3,361.9 257.83,361.8Z" style="fill:white;fill-rule:nonzero;"/>
            <path d="M238.6,240.49C202.42,240.49 173.09,269.82 173.09,306C173.09,314.03 174.54,321.72 177.18,328.83C184.19,321.59 198.86,307.99 210.13,307.99C225.49,307.99 230.4,321.69 230.4,331.06C230.4,331.84 230.39,332.57 230.37,333.26C230.76,332.99 231.13,332.73 231.48,332.47C233.03,331.36 234.35,330.41 236.28,329.95C236.42,327.38 236.6,324.27 236.79,320.68C237.41,309.59 237.29,272.24 237.29,260.63C237.29,252.75 232.53,249.03 229.47,247.46C232.44,247 235.49,246.76 238.59,246.76C241.71,246.76 244.77,247 247.76,247.47C244.7,249.05 239.96,252.76 239.96,260.63C239.96,272.24 239.85,309.59 240.46,320.68C240.65,324.18 240.82,327.23 240.96,329.76C243.46,330.11 244.94,331.17 246.73,332.46C246.8,332.51 246.87,332.56 246.95,332.61C246.94,332.11 246.93,331.59 246.93,331.04C246.93,321.67 251.85,307.97 267.2,307.97C278.41,307.97 292.97,321.42 300.03,328.69C302.65,321.61 304.08,313.96 304.08,305.98C304.11,269.82 274.78,240.49 238.6,240.49ZM204,272.41C226.23,271.97 226.98,288.42 226.98,288.42C226.98,288.42 220.48,280.05 202.98,280.98C192,281.56 185.39,287.48 181.38,290.75C184.07,278.36 189.04,272.31 204,272.41ZM180.12,315.32C172.39,284.65 226.09,279.08 227.83,306C215.88,294.9 192.54,300.88 180.12,315.32ZM227.83,272.94C227.83,272.94 214.3,259.33 195.23,265.71C203.04,251.77 228.33,263.67 227.83,272.94ZM229.54,260.64C229.54,260.64 223.53,253.28 212.9,252.65C223.24,245 229.17,256.6 229.54,260.64ZM295.99,290.75C291.97,287.47 285.37,281.56 274.39,280.98C256.89,280.05 250.39,288.42 250.39,288.42C250.39,288.42 251.14,271.97 273.37,272.41C288.33,272.31 293.3,278.36 295.99,290.75ZM247.83,260.64C248.2,256.6 254.12,245 264.47,252.65C253.84,253.28 247.83,260.64 247.83,260.64ZM282.13,265.72C263.07,259.33 249.53,272.95 249.53,272.95C249.04,263.67 274.32,251.77 282.13,265.72ZM297.25,315.32C284.83,300.88 261.48,294.9 249.54,306C251.28,279.08 304.98,284.65 297.25,315.32Z" style="fill:white;fill-rule:nonzero;"/>
            <rect x="326.31" y="315.83" width="270.89" height="2.13" style="fill:white;"/>
            <path d="M394.33,282.44L394.33,286.1C392.56,284.6 390.73,283.86 388.84,283.86C386.76,283.86 385,284.62 383.57,286.13C382.13,287.63 381.42,289.48 381.42,291.65C381.42,293.8 382.14,295.62 383.57,297.09C385.01,298.57 386.77,299.31 388.85,299.31C389.93,299.31 390.84,299.13 391.59,298.78C392.01,298.6 392.45,298.36 392.9,298.06C393.35,297.76 393.83,297.4 394.33,296.97L394.33,300.7C392.58,301.7 390.74,302.2 388.81,302.2C385.91,302.2 383.44,301.18 381.39,299.13C379.35,297.07 378.33,294.58 378.33,291.67C378.33,289.06 379.18,286.73 380.89,284.69C382.99,282.19 385.71,280.93 389.05,280.93C390.87,280.94 392.63,281.44 394.33,282.44ZM484.79,282.44L484.79,286.1C483.02,284.6 481.19,283.86 479.3,283.86C477.22,283.86 475.46,284.62 474.03,286.13C472.59,287.63 471.88,289.48 471.88,291.65C471.88,293.8 472.6,295.62 474.03,297.09C475.47,298.57 477.23,299.31 479.31,299.31C480.39,299.31 481.3,299.13 482.05,298.78C482.47,298.6 482.91,298.36 483.36,298.06C483.81,297.76 484.29,297.4 484.79,296.97L484.79,300.7C483.04,301.7 481.2,302.2 479.27,302.2C476.37,302.2 473.9,301.18 471.85,299.13C469.81,297.07 468.79,294.58 468.79,291.67C468.79,289.06 469.64,286.73 471.35,284.69C473.45,282.19 476.17,280.93 479.51,280.93C481.33,280.94 483.09,281.44 484.79,282.44ZM516.97,291.5C516.97,288.61 518.02,286.14 520.11,284.06C522.19,281.99 524.7,280.95 527.62,280.95C530.51,280.95 532.99,281.99 535.06,284.08C537.13,286.17 538.17,288.68 538.17,291.61C538.17,294.56 537.13,297.06 535.04,299.11C532.95,301.17 530.42,302.2 527.46,302.2C524.84,302.2 522.49,301.28 520.41,299.45C518.12,297.44 516.97,294.78 516.97,291.5ZM437.28,284.25L430.21,284.25L430.21,289.18L437.03,289.18L437.03,292.09L430.21,292.09L430.21,301.85L427.15,301.85L427.15,281.35L437.28,281.35L437.28,284.25ZM563.43,296.86L554.75,296.86L552.49,301.84L549.19,301.84L559.23,280.05L568.91,301.84L565.56,301.84L563.43,296.86ZM361.75,296.86L353.07,296.86L350.81,301.84L347.51,301.84L357.55,280.05L367.23,301.84L363.88,301.84L361.75,296.86ZM411.77,281.34L411.77,301.84L408.71,301.84L408.71,281.34L411.77,281.34ZM454.41,281.34L454.41,301.84L451.35,301.84L451.35,281.34L454.41,281.34ZM585.02,289.52L592.91,281.34L597,281.34L587.83,290.62L597.05,301.84L592.95,301.84L585.65,292.72L585.02,293.36L585.02,301.84L581.96,301.84L581.96,281.34L585.02,281.34L585.02,289.52ZM329.34,293.51L329.34,301.83L326.28,301.83L326.28,281.33L329.75,281.33C331.45,281.33 332.73,281.45 333.6,281.69C334.47,281.93 335.24,282.38 335.91,283.04C337.07,284.19 337.66,285.64 337.66,287.4C337.66,289.28 337.04,290.76 335.79,291.86C334.55,292.96 332.87,293.51 330.76,293.51L329.34,293.51ZM520.06,291.54C520.06,293.81 520.81,295.67 522.32,297.13C523.82,298.59 525.55,299.32 527.51,299.32C529.64,299.32 531.43,298.58 532.9,297.09C534.36,295.59 535.09,293.75 535.09,291.59C535.09,289.41 534.37,287.57 532.92,286.1C531.49,284.61 529.71,283.87 527.59,283.87C525.48,283.87 523.7,284.61 522.24,286.1C520.79,287.56 520.06,289.38 520.06,291.54ZM562.18,293.95L559.17,286.98L556.02,293.95L562.18,293.95ZM360.51,293.95L357.5,286.98L354.35,293.95L360.51,293.95ZM329.33,290.65L330.48,290.65C333.29,290.65 334.69,289.56 334.69,287.37C334.69,285.25 333.24,284.2 330.34,284.2L329.33,284.2L329.33,290.65Z" style="fill:white;"/>
            <path d="M361.99,338.86C361.99,334.69 365.1,331.84 369.01,331.84C371.86,331.84 373.55,333.26 374.57,334.89L372.53,335.93C371.88,334.81 370.58,333.96 369.01,333.96C366.43,333.96 364.43,336.02 364.43,338.87C364.43,341.72 366.42,343.78 369.01,343.78C370.58,343.78 371.88,342.95 372.53,341.81L374.57,342.85C373.53,344.48 371.86,345.9 369.01,345.9C365.1,345.89 361.99,343.04 361.99,338.86ZM525.96,331.84C530.03,331.84 532.9,334.81 532.9,338.86C532.9,342.91 530.03,345.88 525.96,345.88C521.89,345.88 519.02,342.91 519.02,338.86C519.02,334.81 521.89,331.84 525.96,331.84ZM506.97,341.9C507.91,342.9 509.37,343.77 511.26,343.77C513.21,343.77 513.99,342.81 513.99,341.92C513.99,340.7 512.54,340.33 510.9,339.9C508.68,339.35 506.08,338.7 506.08,335.83C506.08,333.59 508.05,331.86 511.03,331.86C513.15,331.86 514.86,332.53 516.12,333.75L514.76,335.52C513.7,334.46 512.26,333.97 510.83,333.97C509.43,333.97 508.53,334.64 508.53,335.66C508.53,336.72 509.91,337.06 511.52,337.47C513.76,338.04 516.43,338.73 516.43,341.68C516.43,343.94 514.84,345.87 511.18,345.87C508.68,345.87 506.86,344.99 505.66,343.71L506.97,341.9ZM550.47,341.9C551.41,342.9 552.87,343.77 554.76,343.77C556.71,343.77 557.49,342.81 557.49,341.92C557.49,340.7 556.04,340.33 554.4,339.9C552.18,339.35 549.58,338.7 549.58,335.83C549.58,333.59 551.55,331.86 554.53,331.86C556.65,331.86 558.36,332.53 559.62,333.75L558.26,335.52C557.2,334.46 555.76,333.97 554.33,333.97C552.93,333.97 552.03,334.64 552.03,335.66C552.03,336.72 553.41,337.06 555.02,337.47C557.26,338.04 559.93,338.73 559.93,341.68C559.93,343.94 558.34,345.87 554.68,345.87C552.18,345.87 550.36,344.99 549.16,343.71L550.47,341.9ZM386.01,343.04L379.58,343.04L378.58,345.65L375.97,345.65L381.3,332.07L384.27,332.07L389.6,345.65L387,345.65L386.01,343.04ZM431.84,343.04L425.41,343.04L424.41,345.65L421.8,345.65L427.13,332.07L430.1,332.07L435.43,345.65L432.82,345.65L431.84,343.04ZM464.35,343.04L457.92,343.04L456.92,345.65L454.31,345.65L459.64,332.07L462.61,332.07L467.94,345.65L465.33,345.65L464.35,343.04ZM437.94,332.06L440.33,332.06L440.33,343.54L446.31,343.54L446.31,345.64L437.94,345.64L437.94,332.06ZM415.03,334.16L410.92,334.16L410.92,332.06L421.52,332.06L421.52,334.16L417.41,334.16L417.41,345.64L415.03,345.64L415.03,334.16ZM405.5,332.06L407.88,332.06L407.88,345.64L405.5,345.64L405.5,332.06ZM500.23,332.06L502.61,332.06L502.61,345.64L500.23,345.64L500.23,332.06ZM540.96,340.57L538.6,340.57L538.6,345.64L536.22,345.64L536.22,332.06L542.18,332.06C544.87,332.06 546.62,333.81 546.62,336.31C546.62,338.73 545.03,340.03 543.4,340.3L546.72,345.63L543.97,345.63L540.96,340.57ZM484.09,332.06L486.8,332.06L490.91,343.05L495.02,332.06L497.73,332.06L492.4,345.64L489.43,345.64L484.09,332.06ZM470.45,332.06L475.5,332.06C479.73,332.06 482.6,334.87 482.6,338.86C482.6,342.85 479.73,345.64 475.5,345.64L470.45,345.64L470.45,332.06ZM392.11,332.06L398.07,332.06C400.92,332.06 402.51,334.01 402.51,336.31C402.51,338.61 400.9,340.56 398.07,340.56L394.49,340.56L394.49,345.63L392.11,345.63L392.11,332.06ZM525.96,333.96C523.21,333.96 521.46,336.06 521.46,338.87C521.46,341.66 523.21,343.78 525.96,343.78C528.69,343.78 530.46,341.66 530.46,338.87C530.46,336.05 528.69,333.96 525.96,333.96ZM475.5,343.54C478.45,343.54 480.16,341.42 480.16,338.86C480.16,336.23 478.53,334.16 475.5,334.16L472.83,334.16L472.83,343.54L475.5,343.54ZM380.25,340.94L385.34,340.94L382.8,334.08L380.25,340.94ZM426.08,340.94L431.17,340.94L428.63,334.08L426.08,340.94ZM458.59,340.94L463.68,340.94L461.14,334.08L458.59,340.94ZM397.75,334.16L394.49,334.16L394.49,338.48L397.75,338.48C399.09,338.48 400.07,337.63 400.07,336.32C400.07,335.01 399.09,334.16 397.75,334.16ZM541.86,334.16L538.6,334.16L538.6,338.48L541.86,338.48C543.2,338.48 544.18,337.63 544.18,336.32C544.18,335.01 543.2,334.16 541.86,334.16Z" style="fill:white;"/>
        </g>
    </g>
</svg>
