<svg class="site-header__logo-svg" data-name="Sabra Logo" xmlns="http://www.w3.org/2000/svg" viewBox="0 0 352.6 65.1" fill="#ffffff">
								<polygon points="25.8 41.2 34.5 56.3 17.1 56.3 5.1 56.3 0 65.1 24.9 65.1 49.8 65.1 37.4 43.6 25 22 19.8 30.9 25.8 41.2" />
								<polygon points="53.1 26.2 38 0 31.8 10.7 39 23.3 49.6 41.7 40.9 41.7 42.2 44.1 47.1 52.5 68.2 52.5 53.1 26.2" />
								<path d="M132.7,63.3a.9.9,0,0,0,1-1V58.6c0-.6-.3-.9-1-.9H104.6A10.83,10.83,0,0,1,97,54.9a9.55,9.55,0,0,1-3.4-7.3V43.9A9.43,9.43,0,0,1,97,36.5a11,11,0,0,1,7.6-2.8h28.1a11,11,0,0,1,7.6,2.8,9.6,9.6,0,0,1,3.4,7.4v2.2H133.6V44.2c-.1-.8-.4-1.3-1-1.3h-28c-.7,0-1,.3-1,1v3.7c0,.3.3.6,1,.9h28.1a11,11,0,0,1,7.6,2.8,9.55,9.55,0,0,1,3.4,7.3v3.7a9.45,9.45,0,0,1-3.3,7.3,11.52,11.52,0,0,1-7.7,2.9H104.6A10.83,10.83,0,0,1,97,69.7a9.6,9.6,0,0,1-3.4-7.4V60.1h10V62c.1.8.4,1.2,1,1.2h28.1Z" transform="translate(-11.9 -20.2)" />
								<path d="M160.2,57.7V72.5h-10V43.9a9.43,9.43,0,0,1,3.4-7.4,11,11,0,0,1,7.6-2.8h28.1a11,11,0,0,1,7.6,2.8,9.6,9.6,0,0,1,3.4,7.4V72.6H190.2V57.7Zm0-9.2h30.1V43.9a.9.9,0,0,0-1-1H161.2c-.7,0-1,.3-1,1Z" transform="translate(-11.9 -20.2)" />
								<path d="M256,51.4c-.8,1.3-3.5,1.8-3.5,1.8s2.4.2,3.3,1.4a9.55,9.55,0,0,1,1.2,4.1v3.7a9.64,9.64,0,0,1-3.2,7.2,11.21,11.21,0,0,1-7.8,3H206.9V33.7H246a11.21,11.21,0,0,1,7.8,3,9.3,9.3,0,0,1,3.2,7.2v3.7A9.78,9.78,0,0,1,256,51.4Zm-10.1-2.9c.6,0,1-.3,1-.9V43.9a.9.9,0,0,0-1-1H216.8v5.6Zm-29.1,9.2v5.6h29.1a.9.9,0,0,0,1-1V58.6c0-.6-.3-.9-1-.9Z" transform="translate(-11.9 -20.2)" />
								<path d="M297.2,57.7H273.1V72.5h-9.7V33.7h33.8a10.5,10.5,0,0,1,7.5,3,9.64,9.64,0,0,1,3.2,7.2v1.6a33.12,33.12,0,0,1-.2,4,7.08,7.08,0,0,1-1.6,2.7,8.51,8.51,0,0,1-3,1.1s3.1.4,3.9,1.5a7.44,7.44,0,0,1,1,4V72.7h-9.7V58.6A1,1,0,0,0,297.2,57.7Zm0-9.2c.6,0,1-.3,1-.9V43.9a.9.9,0,0,0-1-1H273.1v5.6Z" transform="translate(-11.9 -20.2)" />
								<path d="M324.4,57.7V72.5h-10V43.9a9.43,9.43,0,0,1,3.4-7.4,11,11,0,0,1,7.6-2.8h28.1a11,11,0,0,1,7.6,2.8,9.6,9.6,0,0,1,3.4,7.4V72.6H354.4V57.7Zm0-9.2h30.1V43.9a.9.9,0,0,0-1-1H325.4c-.7,0-1,.3-1,1Z" transform="translate(-11.9 -20.2)" />
							</svg>